# Blender v2.79 (sub 0) OBJ File: 'e1m1.blend'
# www.blender.org
mtllib e1m1_floor2.mtl
o Plane.002_Plane.003
v -9.151037 -0.646180 -11.124269
v -9.151037 -0.646180 -3.948225
v -15.139801 -0.646180 -9.933015
v -15.139801 -0.646180 -5.139480
v -16.639591 -0.646180 -13.560826
v -16.639591 -0.646180 -1.511669
v -25.200920 -0.646180 -13.560826
v -25.200920 -0.646180 -1.511669
v -26.825699 -0.646180 -12.657097
v -26.825699 -0.646180 -3.040312
v -30.829521 -0.653010 -10.381248
v -30.829521 -0.653010 -5.316162
v -36.453758 -0.653010 -10.381248
v -36.453758 -0.653010 -5.316162
v -38.011669 -0.646180 -9.379950
v -38.016041 -0.653010 -6.317460
v -9.151037 -0.646180 -9.941405
v -15.139801 -0.646180 -9.142872
v -16.639591 -0.646180 -11.574701
v -25.200920 -0.646180 -11.574701
v -26.825699 -0.646180 -11.071913
v -30.829521 -0.653010 -9.546344
v -36.453758 -0.653010 -9.546344
v -38.016041 -0.653010 -8.875143
v -9.151037 -0.646180 -7.645317
v -15.139801 -0.646180 -7.609105
v -16.639591 -0.646180 -7.719384
v -25.200920 -0.646180 -7.719384
v -26.825699 -0.646180 -7.994871
v -30.829521 -0.653010 -7.925690
v -36.453758 -0.653010 -7.925690
v -38.016041 -0.653010 -7.895252
v 23.056467 -5.380417 -1.627350
v 23.056467 -5.380417 -12.472931
v 17.901857 -5.380417 -1.901152
v 17.901855 -5.380417 -12.533768
v 24.817896 -5.380417 -1.065765
v 24.817896 -5.380417 -11.478241
v 26.838356 -5.380417 -1.065765
v 26.838356 -5.380417 -11.478241
v 27.978104 -5.380417 -2.590955
v 27.978104 -5.380417 -11.954864
v 28.639320 -5.380417 -2.590955
v 28.639320 -5.380417 -11.954864
v 13.871794 -5.380417 -12.819410
v 13.871794 -5.380417 -2.877070
v 30.906729 -5.380417 -11.954864
v 30.906729 -5.380417 -2.590955
v -2.433376 -5.380416 -3.298486
v 3.415822 -5.380416 -3.298486
v -2.433376 -5.380416 -7.770870
v -2.433376 -5.380416 -10.548455
v 3.415822 -5.380416 -7.770870
v 3.415822 -5.380416 -10.548455
vt -2.537791 4.900000
vt -2.534633 3.074221
vt -2.237254 3.074221
vt -3.152500 2.616983
vt -3.900000 2.616983
vt -3.152500 0.006913
vt -3.559872 -0.488429
vt -2.963271 -0.488429
vt -2.703331 -1.709064
vt -2.389106 -1.709064
vt -2.389106 -3.423710
vt -2.326482 -3.898667
vt -2.136492 -3.900000
vt -1.779155 -3.423710
vt -1.767700 -3.900000
vt -1.779155 -1.709064
vt -1.805192 -0.488429
vt -1.701509 0.006913
vt -1.701509 2.616983
vt -1.660004 3.074221
vt -1.673633 4.900000
vt -0.730534 3.074221
vt -0.282193 4.900000
vt 0.634831 2.616983
vt 0.634831 0.006913
vt 0.059510 -0.488429
vt -0.797031 -1.709064
vt -0.797031 -3.423710
vt -1.173881 -3.900000
vt 1.160752 1.292994
vt 4.849749 0.176213
vt 4.900000 1.407257
vt 0.850893 0.054017
vt 4.900000 -1.394842
vt 1.253281 -3.007792
vt 4.784366 -3.101617
vt 4.774985 -2.900177
vt 4.579560 -2.558430
vt 0.634831 -2.062561
vt 4.550895 -1.942895
vt 0.821050 -1.519486
vt 1.262663 -3.209232
vt 4.816535 -3.792385
vt 2.836241 3.617537
vt 0.634831 2.254053
vt 2.836241 2.254053
vt 0.634831 1.407258
vt 2.836241 1.407258
vt -2.982975 4.900000
vt -3.900000 0.006913
vt -2.703331 -3.423710
vt 0.663497 -2.678096
vt 1.294831 -3.900000
vt 0.634831 3.617537
vn 0.0000 1.0000 0.0000
vn -0.0017 1.0000 0.0000
vn 0.0058 0.9999 0.0136
vn 0.0044 1.0000 0.0000
usemtl Material.005
s off
f 17/1/1 3/2/1 18/3/1
f 3/2/1 19/4/1 18/3/1
f 5/5/1 20/6/1 19/4/1
f 20/6/1 9/7/1 21/8/1
f 21/8/2 11/9/2 22/10/2
f 11/9/1 23/11/1 22/10/1
f 23/11/3 15/12/3 24/13/3
f 31/14/1 24/13/1 32/15/1
f 22/10/1 31/14/1 30/16/1
f 29/17/2 22/10/2 30/16/2
f 28/18/1 21/8/1 29/17/1
f 19/4/1 28/18/1 27/19/1
f 18/3/1 27/19/1 26/20/1
f 25/21/1 18/3/1 26/20/1
f 25/21/1 4/22/1 2/23/1
f 4/22/1 27/19/1 6/24/1
f 27/19/1 8/25/1 6/24/1
f 28/18/1 10/26/1 8/25/1
f 29/17/2 12/27/2 10/26/2
f 30/16/1 14/28/1 12/27/1
f 31/14/1 16/29/1 14/28/1
f 46/30/1 36/31/1 45/32/1
f 35/33/1 34/34/1 36/31/1
f 41/35/1 44/36/1 42/37/1
f 40/38/1 41/35/1 42/37/1
f 37/39/1 40/38/1 38/40/1
f 33/41/1 38/40/1 34/34/1
f 43/42/1 47/43/1 44/36/1
f 49/44/1 53/45/1 51/46/1
f 51/46/1 54/47/1 52/48/1
f 17/1/1 1/49/1 3/2/1
f 3/2/1 5/5/1 19/4/1
f 5/5/1 7/50/1 20/6/1
f 20/6/1 7/50/1 9/7/1
f 21/8/2 9/7/2 11/9/2
f 11/9/1 13/51/1 23/11/1
f 23/11/4 13/51/4 15/12/4
f 31/14/1 23/11/1 24/13/1
f 22/10/1 23/11/1 31/14/1
f 29/17/2 21/8/2 22/10/2
f 28/18/1 20/6/1 21/8/1
f 19/4/1 20/6/1 28/18/1
f 18/3/1 19/4/1 27/19/1
f 25/21/1 17/1/1 18/3/1
f 25/21/1 26/20/1 4/22/1
f 4/22/1 26/20/1 27/19/1
f 27/19/1 28/18/1 8/25/1
f 28/18/1 29/17/1 10/26/1
f 29/17/2 30/16/2 12/27/2
f 30/16/1 31/14/1 14/28/1
f 31/14/1 32/15/1 16/29/1
f 46/30/1 35/33/1 36/31/1
f 35/33/1 33/41/1 34/34/1
f 41/35/1 43/42/1 44/36/1
f 40/38/1 39/52/1 41/35/1
f 37/39/1 39/52/1 40/38/1
f 33/41/1 37/39/1 38/40/1
f 43/42/1 48/53/1 47/43/1
f 49/44/1 50/54/1 53/45/1
f 51/46/1 53/45/1 54/47/1
