# Blender v2.79 (sub 0) OBJ File: ''
# www.blender.org
mtllib untitled.mtl
o Plane_Plane.001
v -2.376024 -1.050267 -7.733628
v 2.378142 -1.050272 7.768831
v -7.750171 -1.050271 2.394685
v 2.378142 -0.845087 7.768831
v -7.750171 -0.834827 2.394685
v -7.750171 -0.845086 2.394685
v 7.752289 -1.050268 -2.359482
v -2.376024 -1.050267 -7.733628
v 7.752289 -1.050268 -2.359482
v -13.693919 -0.845101 38.058826
v 2.444739 -0.845087 7.804168
v -22.477863 -0.845080 -18.399790
v -2.376024 -0.845082 -7.733628
v 2.378142 -0.834828 7.768831
v -2.376024 -0.834823 -7.733628
v 7.752289 -0.845083 -2.359482
v 7.752289 -0.834824 -2.359482
v 7.752289 -0.845083 -2.359482
v 7.752289 -1.050268 -2.359482
v 7.752289 -0.845083 -2.359482
v -2.376024 -0.845082 -7.733628
v 7.818886 -1.050268 -2.324145
v 2.444739 -1.050272 7.804168
v 7.818885 2.817463 -2.324145
v 7.818886 -0.845083 -2.324145
v 2.378142 2.817460 7.768834
v 7.752288 2.817463 -2.359482
v 2.460367 2.817460 7.812461
v 2.444739 2.817460 7.804171
v 7.834515 -0.845083 -2.315852
v 2.460368 -0.845087 7.812460
v 7.834514 2.817463 -2.315850
v -2.376024 -0.845082 -7.733628
v 6.803052 -1.050259 -25.032858
v -2.376024 -1.050267 -7.733628
v -27.852011 -1.050271 -8.271477
v -22.477863 -1.050265 -18.399790
v -27.852011 -0.845086 -8.271477
v 16.931364 -0.845075 -19.658710
v 16.931364 -1.050260 -19.658710
v 6.803052 -0.845074 -25.032858
v -13.693919 -1.050286 38.058826
v -23.822233 -0.845100 32.684681
v -23.822233 -1.050285 32.684681
vt 0.311988 0.633186
vt 2.689071 8.384416
vt -2.375086 5.697342
vt 0.689071 0.077457
vt -4.375086 0.082586
vt -4.375086 0.077457
vt 0.376144 0.974866
vt -4.688012 0.974866
vt 0.376144 0.974866
vt 0.624914 0.697343
vt -2.346960 18.529413
vt 5.689071 3.384416
vt 0.689071 0.974864
vt 0.722370 1.077457
vt 0.689071 1.077457
vt 0.311988 0.974866
vt -9.738932 1.077459
vt 0.311988 1.077459
vt 0.689071 0.384416
vt -1.688012 -7.366814
vt -4.375086 -2.302658
vt 0.077459 0.320259
vt 0.082586 5.384416
vt 0.077457 5.384416
vt 0.077457 0.697343
vt 0.082588 -4.366814
vt 0.077459 -4.366814
vt 0.311988 0.077459
vt 5.376144 0.082588
vt 5.376144 0.077459
vt 0.376144 0.077459
vt 0.376144 -0.025134
vt 0.376144 0.077459
vt 0.311988 1.077459
vt 0.311988 0.974866
vt 0.376144 0.077459
vt 0.376144 -0.025134
vt 5.376144 0.077459
vt 0.311988 0.077459
vt 0.974866 0.337927
vt 1.077457 5.402084
vt 0.974864 5.402084
vt 0.409442 1.908731
vt 0.409443 0.077459
vt 0.376144 0.320259
vt -2.277630 5.402084
vt -2.310929 5.384416
vt 0.409443 -0.025134
vt 0.376144 -0.025134
vt 0.689071 0.384417
vt 3.409442 -4.662073
vt 3.376144 -4.679741
vt 0.077457 0.384416
vt 1.908731 -4.679741
vt 0.077459 -4.679741
vt 0.722370 0.077457
vt 0.689071 1.908731
vt 0.730183 1.908731
vt 0.722370 1.908731
vt 0.077459 0.342074
vt 1.908731 5.406230
vt 0.077457 5.406230
vt 0.409442 0.908731
vt 0.417257 -0.922541
vt 0.409443 -0.922541
vt 0.722370 0.402085
vt 3.417257 -4.657926
vt 0.409443 0.337927
vt -2.269816 5.406230
vt -2.277630 5.402084
vt 0.077459 0.633186
vt -0.025132 -8.016429
vt -0.025134 0.633186
vt 5.376144 0.077459
vt 0.311988 0.077459
vt 0.311988 1.077459
vt 0.311988 0.974866
vt -4.688012 0.974866
vt 0.376144 0.974866
vt 0.974864 0.364262
vt 1.077459 -4.699895
vt 0.974866 -4.699895
vt 0.311988 0.633186
vt -12.426005 0.364262
vt -2.375086 5.697342
vt 0.624914 0.697343
vt -6.738932 -9.699895
vt 3.311988 -4.366814
vt 0.624914 0.077457
vt -9.426005 -0.025136
vt 0.624914 -0.025136
vt 0.901526 0.974868
vt 5.965682 1.077461
vt 5.965682 0.974868
vt 0.311988 0.633186
vt 9.965682 -5.329355
vt 5.376144 3.320259
vt 0.974866 0.320259
vt 1.077461 -8.329355
vt 1.077459 0.320259
vt 0.376144 0.320259
vt -0.098474 -11.016429
vt -4.688012 -2.366814
vt 0.653040 0.974860
vt -4.411117 1.077453
vt -4.411117 0.974860
vt 0.689071 0.384416
vt -12.411117 12.842340
vt -4.375086 -2.302658
vt -0.025140 15.529413
vt -0.025136 0.384416
vt 0.974864 0.697343
vt 1.077453 15.842340
vt 1.077457 0.697343
vt 5.376144 3.320259
vt 0.689071 0.082586
vt -4.688012 0.974866
vt -7.411117 15.842340
vt 0.722370 0.974864
vt -9.738932 0.974866
vt 3.376144 -4.679741
vt 0.082588 0.320259
vt 0.082586 0.697343
vt 0.311988 0.082588
vt 1.077459 0.337927
vt 0.376144 1.908731
vt 0.409443 0.337927
vt 1.908731 0.384417
vt 0.730184 0.077457
vt 1.908731 0.342075
vt 0.417257 0.908731
vt 0.730183 0.406230
vt 0.417257 0.342074
vt 0.077461 -8.016429
vt 1.077456 0.364262
vt -9.738932 -4.699895
vt -9.426005 -4.635738
vt -9.426005 0.077457
vt 0.901526 1.077461
vt 4.901526 -8.016429
vt 0.974868 -8.329355
vt 4.965682 -8.329355
vt 0.653040 1.077453
vt -7.346960 15.529413
vt 0.077453 15.529413
vt 0.974860 15.842340
vn 0.0000 -1.0000 -0.0000
vn -0.4687 0.0000 0.8834
vn 0.0000 0.0000 1.0000
vn -0.0000 1.0000 0.0000
vn -0.4687 0.0000 0.8833
vn 0.4687 0.0000 -0.8834
vn 0.8834 0.0000 0.4687
vn -0.8833 0.0000 -0.4687
vn -0.8834 0.0000 -0.4687
vn 0.4687 0.0000 -0.8833
vn -0.4686 -0.0000 0.8834
vn 0.4688 0.0000 -0.8833
usemtl None
s 1
f 1/1/1 2/2/1 3/3/1
f 4/4/2 5/5/2 6/6/2
f 7/7/3 8/8/3 9/9/3
f 6/10/4 10/11/4 4/12/4
f 2/13/5 11/14/5 4/15/5
f 1/16/6 12/17/6 13/18/6
f 14/19/4 15/20/4 5/21/4
f 16/22/7 14/23/7 4/24/7
f 6/25/8 15/26/9 13/27/9
f 13/28/6 17/29/10 16/30/10
f 18/31/3 19/32/3 20/33/3
f 1/16/3 21/34/3 8/35/3
f 16/36/3 9/37/3 18/31/3
f 13/28/3 18/38/3 21/39/3
f 22/40/7 11/41/7 23/42/7
f 16/36/10 24/43/10 25/44/10
f 7/45/1 23/46/1 2/47/1
f 16/36/10 22/48/6 7/49/6
f 26/50/4 24/51/4 27/52/4
f 4/53/9 27/54/9 16/55/9
f 11/56/5 26/57/5 4/4/5
f 11/56/5 28/58/11 29/59/2
f 30/60/7 28/61/7 31/62/7
f 24/63/10 30/64/10 25/65/10
f 29/66/4 32/67/4 24/51/4
f 25/68/1 31/69/1 11/70/1
f 33/71/9 34/72/9 35/73/9
f 21/39/3 20/74/3 33/75/3
f 8/35/3 33/76/3 35/77/3
f 9/9/3 35/78/3 19/79/3
f 36/80/9 12/81/9 37/82/9
f 13/83/4 38/84/4 6/85/4
f 3/86/1 37/87/1 1/88/1
f 6/89/2 36/90/2 3/91/2
f 34/92/6 39/93/6 40/94/6
f 35/95/1 40/96/1 19/97/1
f 19/98/7 39/99/7 20/100/7
f 20/101/4 41/102/4 33/103/4
f 42/104/2 43/105/2 44/106/2
f 2/107/1 44/108/1 3/109/1
f 4/53/7 42/110/7 2/111/7
f 3/112/9 43/113/9 6/114/9
f 1/1/1 7/115/1 2/2/1
f 4/4/2 14/116/2 5/5/2
f 7/7/3 1/117/3 8/8/3
f 6/10/4 43/118/4 10/11/4
f 2/13/5 23/119/5 11/14/5
f 1/16/6 37/120/6 12/17/6
f 14/19/4 17/121/4 15/20/4
f 16/22/7 17/122/7 14/23/7
f 6/25/8 5/123/8 15/26/9
f 13/28/6 15/124/6 17/29/10
f 18/31/3 9/37/3 19/32/3
f 1/16/3 13/18/3 21/34/3
f 16/36/3 7/49/3 9/37/3
f 13/28/3 16/30/3 18/38/3
f 22/40/7 25/125/7 11/41/7
f 16/36/10 27/126/6 24/43/10
f 7/45/1 22/127/1 23/46/1
f 16/36/10 25/44/10 22/48/6
f 26/50/4 29/66/4 24/51/4
f 4/53/9 26/128/9 27/54/9
f 11/56/5 29/59/2 26/57/5
f 11/56/5 31/129/2 28/58/11
f 30/60/7 32/130/7 28/61/7
f 24/63/10 32/131/12 30/64/10
f 29/66/4 28/132/4 32/67/4
f 25/68/1 30/133/1 31/69/1
f 33/71/9 41/134/9 34/72/9
f 21/39/3 18/38/3 20/74/3
f 8/35/3 21/34/3 33/76/3
f 9/9/3 8/8/3 35/78/3
f 36/80/9 38/135/9 12/81/9
f 13/83/4 12/136/4 38/84/4
f 3/86/1 36/137/1 37/87/1
f 6/89/2 38/138/2 36/90/2
f 34/92/6 41/139/6 39/93/6
f 35/95/1 34/140/1 40/96/1
f 19/98/7 40/141/7 39/99/7
f 20/101/4 39/142/4 41/102/4
f 42/104/2 10/143/2 43/105/2
f 2/107/1 42/144/1 44/108/1
f 4/53/7 10/145/7 42/110/7
f 3/112/9 44/146/9 43/113/9
o Cube.001_Cube.002
v 4.097038 1.110175 -14.348826
v 4.097038 -0.889824 -16.348827
v 4.097038 -0.889825 -14.348826
v 4.097038 1.110176 -16.348827
v 6.097038 -0.889824 -16.348827
v 6.097038 1.110176 -16.348827
v 6.097038 -0.889825 -14.348826
v 6.097038 1.110175 -14.348826
vt 0.055086 0.325587
vt -0.944914 -0.674414
vt -0.944914 0.325587
vt 0.548519 0.055086
vt 1.548519 -0.944914
vt 0.548519 -0.944914
vt 0.055086 0.325586
vt -0.944914 1.325587
vt -0.944914 0.325586
vt 0.548519 0.055086
vt -0.451481 -0.944914
vt 0.548519 -0.944914
vt 0.548519 0.325586
vt -0.451481 1.325587
vt -0.451481 0.325586
vt 0.548519 0.325586
vt 1.548519 1.325587
vt 1.548519 0.325586
vt 0.055086 -0.674414
vt 1.548519 0.055086
vt 0.055086 1.325587
vt -0.451481 0.055086
vt 0.548519 1.325587
vt 0.548519 1.325587
vn -1.0000 0.0000 0.0000
vn 0.0000 0.0000 -1.0000
vn 1.0000 0.0000 0.0000
vn 0.0000 0.0000 1.0000
vn 0.0000 -1.0000 -0.0000
vn 0.0000 1.0000 0.0000
usemtl None
s off
f 45/147/13 46/148/13 47/149/13
f 48/150/14 49/151/14 46/152/14
f 50/153/15 51/154/15 49/155/15
f 52/156/16 47/157/16 51/158/16
f 49/159/17 47/160/17 46/161/17
f 48/162/18 52/163/18 50/164/18
f 45/147/13 48/165/13 46/148/13
f 48/150/14 50/166/14 49/151/14
f 50/153/15 52/167/15 51/154/15
f 52/156/16 45/168/16 47/157/16
f 49/159/17 51/169/17 47/160/17
f 48/162/18 45/170/18 52/163/18
o Cube.002_Cube.003
v -4.959133 0.189812 -0.943531
v -3.330382 -1.810188 -2.104208
v -4.959133 -1.810188 -0.943531
v -3.330382 0.189812 -2.104208
v -2.169705 -1.810188 -0.475457
v -2.169705 0.189812 -0.475457
v -3.798456 -1.810188 0.685220
v -3.798456 0.189812 0.685220
vt 0.020433 0.594906
vt 0.834809 -0.405094
vt 0.020433 -0.405094
vt 0.594906 0.447896
vt -0.405094 1.262272
vt -0.405094 0.447896
vt 0.415148 0.594906
vt -0.399228 -0.405094
vt 0.415148 -0.405094
vt 0.594906 0.842610
vt -0.405094 0.028235
vt -0.405094 0.842610
vt 0.415148 0.262271
vt -0.979567 0.028235
vt -0.165191 -0.552104
vt 0.834809 0.447896
vt 0.600772 1.842610
vt 1.415148 1.262272
vt 0.834809 0.594906
vt 0.594906 1.262272
vt -0.399228 0.594906
vt 0.594906 0.028235
vt -0.399228 0.842610
vt 0.020433 1.028234
vn -0.5803 0.0000 -0.8144
vn 0.8144 0.0000 -0.5803
vn 0.5803 0.0000 0.8144
vn -0.8144 0.0000 0.5803
vn 0.0000 -1.0000 -0.0000
vn 0.0000 1.0000 0.0000
usemtl None
s off
f 53/171/19 54/172/19 55/173/19
f 56/174/20 57/175/20 54/176/20
f 58/177/21 59/178/21 57/179/21
f 60/180/22 55/181/22 59/182/22
f 57/183/23 55/184/23 54/185/23
f 56/186/24 60/187/24 58/188/24
f 53/171/19 56/189/19 54/172/19
f 56/174/20 58/190/20 57/175/20
f 58/177/21 60/191/21 59/178/21
f 60/180/22 53/192/22 55/181/22
f 57/183/23 59/193/23 55/184/23
f 56/186/24 53/194/24 60/187/24
o Cube_Cube.001
v -4.378687 0.999999 5.888731
v -3.646032 -1.000001 4.027759
v -4.378687 -1.000001 5.888731
v -3.646032 0.999999 4.027759
v -1.785060 -1.000001 4.760413
v -1.785060 0.999999 4.760413
v -2.517715 -1.000001 6.621386
v -2.517715 0.999999 6.621386
vt 0.000000 0.444366
vt -1.000000 -0.486120
vt -1.000000 0.444366
vt 0.676984 0.000000
vt 1.607470 -1.000000
vt 0.676984 -1.000000
vt 0.000000 0.880207
vt -1.000000 1.810693
vt -1.000000 0.880207
vt 0.241143 0.000000
vt -0.689343 -1.000000
vt 0.241143 -1.000000
vt 0.607470 0.880207
vt -0.689343 1.444366
vt -0.323016 0.513880
vt 0.676984 0.513880
vt 1.241143 1.810693
vt 1.607470 0.880207
vt 0.000000 -0.486120
vt 1.607470 0.000000
vt 0.000000 1.810693
vt -0.689343 0.000000
vt 0.241143 1.810693
vt 0.310657 1.444366
vn -0.9305 0.0000 -0.3663
vn 0.3663 0.0000 -0.9305
vn 0.9305 0.0000 0.3663
vn -0.3663 0.0000 0.9305
vn -0.0000 -1.0000 -0.0000
vn 0.0000 1.0000 0.0000
usemtl None
s off
f 61/195/25 62/196/25 63/197/25
f 64/198/26 65/199/26 62/200/26
f 66/201/27 67/202/27 65/203/27
f 68/204/28 63/205/28 67/206/28
f 65/207/29 63/208/29 62/209/29
f 64/210/30 68/211/30 66/212/30
f 61/195/25 64/213/25 62/196/25
f 64/198/26 66/214/26 65/199/26
f 66/201/27 68/215/27 67/202/27
f 68/204/28 61/216/28 63/205/28
f 65/207/29 67/217/29 63/208/29
f 64/210/30 61/218/30 68/211/30
