# Blender v2.79 (sub 0) OBJ File: ''
# www.blender.org
mtllib untitled.mtl
o Plane_Plane.001
v -7.750171 -1.050271 2.394685
v 2.378142 -1.050270 7.768831
v -2.376024 -1.050269 -7.733628
v 7.752289 -1.050268 -2.359482
v -2.376024 -0.845084 -7.733628
v -7.750171 -0.845086 2.394685
v 2.378142 -0.845085 7.768831
v 7.752289 -0.845083 -2.359482
v -2.376024 -0.834825 -7.733628
v -7.750171 -0.834827 2.394685
v 2.378142 -0.834826 7.768831
v 7.752289 -0.834824 -2.359482
v 7.752289 -1.050268 -2.359482
v -2.376024 -1.050269 -7.733628
v 7.752289 -0.845083 -2.359482
v -2.376024 -0.845084 -7.733628
v 2.444739 -1.050270 7.804168
v 7.818886 -1.050268 -2.324145
v 2.444739 -0.845085 7.804168
v 7.818886 -0.845083 -2.324145
v 2.378142 2.817462 7.768832
v 7.752288 2.817463 -2.359482
v 2.444739 2.817462 7.804169
v 7.818885 2.817463 -2.324145
v 2.460368 -0.845085 7.812460
v 7.834515 -0.845083 -2.315852
v 2.460367 2.817462 7.812461
v 7.834514 2.817463 -2.315852
v 7.752289 -1.050268 -2.359482
v -2.376024 -1.050269 -7.733628
v 7.752289 -0.845083 -2.359482
v -2.376024 -0.845084 -7.733628
v -22.477863 -1.050271 -18.399790
v -27.852011 -1.050273 -8.271477
v -22.477863 -0.845086 -18.399790
v -27.852011 -0.845088 -8.271477
v 16.931364 -1.050266 -19.658710
v 6.803052 -1.050267 -25.032858
v 16.931364 -0.845081 -19.658710
v 6.803052 -0.845082 -25.032858
v -23.822233 -1.050275 32.684681
v -13.693919 -1.050274 38.058826
v -23.822233 -0.845090 32.684681
v -13.693919 -0.845089 38.058826
vn 0.0000 -1.0000 -0.0000
vn -0.4687 0.0000 0.8834
vn 0.0000 0.0000 1.0000
vn -0.0000 1.0000 0.0000
vn -0.4687 0.0000 0.8833
vn 0.4687 0.0000 -0.8834
vn 0.8834 0.0000 0.4687
vn -0.8834 0.0000 -0.4687
vn 0.4687 0.0000 -0.8833
usemtl None
s off
f 3//1 2//1 1//1
f 7//2 10//2 6//2
f 4//3 14//3 13//3
f 6//4 44//4 7//4
f 2//5 19//5 7//5
f 3//6 35//6 5//6
f 11//4 9//4 10//4
f 8//7 11//7 7//7
f 6//8 9//8 5//8
f 5//6 12//6 8//6
f 15//3 29//3 31//3
f 3//3 16//3 14//3
f 8//3 13//3 15//3
f 5//3 15//3 16//3
f 18//7 19//7 17//7
f 8//6 24//6 20//6
f 4//1 17//1 2//1
f 8//6 18//6 4//6
f 21//4 24//4 22//4
f 7//8 22//8 8//8
f 19//5 21//5 7//5
f 19//2 27//2 23//2
f 26//7 27//7 25//7
f 24//9 26//9 20//9
f 23//4 28//4 24//4
f 20//1 25//1 19//1
f 32//8 38//8 30//8
f 16//3 31//3 32//3
f 14//3 32//3 30//3
f 13//3 30//3 29//3
f 34//8 35//8 33//8
f 5//4 36//4 6//4
f 1//1 33//1 3//1
f 6//2 34//2 1//2
f 38//6 39//6 37//6
f 30//1 37//1 29//1
f 29//7 39//7 31//7
f 31//4 40//4 32//4
f 42//2 43//2 41//2
f 2//1 41//1 1//1
f 7//7 42//7 2//7
f 1//8 43//8 6//8
f 3//1 4//1 2//1
f 7//2 11//2 10//2
f 4//3 3//3 14//3
f 6//4 43//4 44//4
f 2//2 17//2 19//2
f 3//6 33//6 35//6
f 11//4 12//4 9//4
f 8//7 12//7 11//7
f 6//8 10//8 9//8
f 5//6 9//6 12//6
f 15//3 13//3 29//3
f 3//3 5//3 16//3
f 8//3 4//3 13//3
f 5//3 8//3 15//3
f 18//7 20//7 19//7
f 8//9 22//9 24//9
f 4//1 18//1 17//1
f 8//6 20//6 18//6
f 21//4 23//4 24//4
f 7//8 21//8 22//8
f 19//5 23//5 21//5
f 19//2 25//2 27//2
f 26//7 28//7 27//7
f 24//6 28//6 26//6
f 23//4 27//4 28//4
f 20//1 26//1 25//1
f 32//8 40//8 38//8
f 16//3 15//3 31//3
f 14//3 16//3 32//3
f 13//3 14//3 30//3
f 34//8 36//8 35//8
f 5//4 35//4 36//4
f 1//1 34//1 33//1
f 6//2 36//2 34//2
f 38//6 40//6 39//6
f 30//1 38//1 37//1
f 29//7 37//7 39//7
f 31//4 39//4 40//4
f 42//2 44//2 43//2
f 2//1 42//1 41//1
f 7//7 44//7 42//7
f 1//8 41//8 43//8
