# Blender v2.79 (sub 0) OBJ File: ''
# www.blender.org
mtllib untitled.mtl
o Plane_Plane.001
v -7.750171 -0.454727 2.394685
v 2.378142 -0.454726 7.768831
v -2.376024 -0.454725 -7.733628
v 7.752289 -0.454724 -2.359482
v -2.376024 -0.249541 -7.733628
v -7.750171 -0.249542 2.394685
v 2.378142 -0.249541 7.768831
v 7.752289 -0.249539 -2.359482
v -2.376024 -0.239281 -7.733628
v -7.750171 -0.239283 2.394685
v 2.378142 -0.239282 7.768831
v 7.752289 -0.239280 -2.359482
v 7.752289 -0.454724 -2.359482
v -2.376024 -0.454725 -7.733628
v 7.752289 -0.249539 -2.359482
v -2.376024 -0.249541 -7.733628
v 2.444739 -0.454726 7.804168
v 7.818886 -0.454724 -2.324145
v 2.444739 -0.249541 7.804168
v 7.818886 -0.249539 -2.324145
v 2.378142 3.413006 7.768832
v 7.752288 3.413007 -2.359482
v 2.444739 3.413006 7.804169
v 7.818885 3.413007 -2.324145
v 2.460368 -0.249541 7.812460
v 7.834515 -0.249539 -2.315852
v 2.460367 3.413006 7.812461
v 7.834514 3.413007 -2.315852
v 7.752289 -0.454724 -2.359482
v -2.376024 -0.454725 -7.733628
v 7.752289 -0.249539 -2.359482
v -2.376024 -0.249541 -7.733628
vn 0.0000 -1.0000 -0.0000
vn -0.4687 0.0000 0.8834
vn 0.0000 0.0000 1.0000
vn -0.4687 0.0000 0.8833
vn -0.8834 0.0000 -0.4687
vn -0.0000 1.0000 0.0000
vn 0.8834 0.0000 0.4687
vn 0.4687 0.0000 -0.8834
vn 0.4687 0.0000 -0.8833
usemtl None
s off
f 3//1 2//1 1//1
f 7//2 10//2 6//2
f 4//3 14//3 13//3
f 2//2 6//2 1//2
f 2//4 19//4 7//4
f 1//5 5//5 3//5
f 11//6 9//6 10//6
f 8//7 11//7 7//7
f 6//5 9//5 5//5
f 5//8 12//8 8//8
f 15//3 29//3 31//3
f 3//3 16//3 14//3
f 8//3 13//3 15//3
f 5//3 15//3 16//3
f 18//7 19//7 17//7
f 8//8 24//8 20//8
f 4//1 17//1 2//1
f 8//8 18//8 4//8
f 21//6 24//6 22//6
f 7//5 22//5 8//5
f 19//4 21//4 7//4
f 19//2 27//2 23//2
f 26//7 27//7 25//7
f 24//9 26//9 20//9
f 23//6 28//6 24//6
f 20//1 25//1 19//1
f 30//8 31//8 29//8
f 16//3 31//3 32//3
f 14//3 32//3 30//3
f 13//3 30//3 29//3
f 3//1 4//1 2//1
f 7//2 11//2 10//2
f 4//3 3//3 14//3
f 2//2 7//2 6//2
f 2//2 17//2 19//2
f 1//5 6//5 5//5
f 11//6 12//6 9//6
f 8//7 12//7 11//7
f 6//5 10//5 9//5
f 5//8 9//8 12//8
f 15//3 13//3 29//3
f 3//3 5//3 16//3
f 8//3 4//3 13//3
f 5//3 8//3 15//3
f 18//7 20//7 19//7
f 8//9 22//9 24//9
f 4//1 18//1 17//1
f 8//8 20//8 18//8
f 21//6 23//6 24//6
f 7//5 21//5 22//5
f 19//4 23//4 21//4
f 19//2 25//2 27//2
f 26//7 28//7 27//7
f 24//8 28//8 26//8
f 23//6 27//6 28//6
f 20//1 26//1 25//1
f 30//8 32//8 31//8
f 16//3 15//3 31//3
f 14//3 16//3 32//3
f 13//3 14//3 30//3
